<?xml version="1.0" encoding="UTF-8" standalone="no"?>
<!-- Created with Inkscape (http://www.inkscape.org/) -->

<svg
   width="122mm"
   height="118mm"
   viewBox="0 0 122 118"
   version="1.1"
   id="svg1"
   sodipodi:docname="logoOrganizze.svg"
   inkscape:version="1.3.2 (091e20e, 2023-11-25, custom)"
   xmlns:inkscape="http://www.inkscape.org/namespaces/inkscape"
   xmlns:sodipodi="http://sodipodi.sourceforge.net/DTD/sodipodi-0.dtd"
   xmlns="http://www.w3.org/2000/svg"
   xmlns:svg="http://www.w3.org/2000/svg">
  <sodipodi:namedview
     id="namedview1"
     pagecolor="#ffffff"
     bordercolor="#000000"
     borderopacity="0"
     inkscape:showpageshadow="2"
     inkscape:pageopacity="0.0"
     inkscape:pagecheckerboard="0"
     inkscape:deskcolor="#d1d1d1"
     inkscape:document-units="mm"
     inkscape:zoom="1.1519446"
     inkscape:cx="321.196"
     inkscape:cy="431.0103"
     inkscape:window-width="1920"
     inkscape:window-height="1009"
     inkscape:window-x="-8"
     inkscape:window-y="-8"
     inkscape:window-maximized="1"
     inkscape:current-layer="layer1"
     showgrid="false" />
  <defs
     id="defs1">
    <clipPath
       clipPathUnits="userSpaceOnUse"
       id="clipPath50">
      <path
         id="path51"
         style="fill:#ff0000;fill-opacity:1;fill-rule:nonzero;stroke:none;stroke-width:0.264583"
         d="M 0.03152263,0.87694905 V 119.41028 H 122.37496 V 0.87694905 Z M 50.760725,58.500822 c 0.143415,0.0019 0.308192,0.104836 0.424265,0.344681 0.01164,0.02405 0.02532,0.04717 0.03772,0.0708 0.04006,0.078 0.07579,0.158456 0.09302,0.244946 0.0063,0.03483 0.0063,0.07029 0.0098,0.105421 0.02736,-0.02732 0.06199,-0.04189 0.0987,-0.04186 0.07984,6.6e-5 0.16823,0.068 0.206706,0.21859 0.0046,0.01831 0.0092,0.03688 0.01344,0.05529 0.0043,0.01855 0.0093,0.03686 0.01394,0.05529 0.0026,0.01328 0.0047,0.01966 0.0083,0.03049 0.0047,0.01408 0.0088,0.02811 0.01291,0.04238 0.0041,0.01371 0.0087,0.02767 0.01291,0.04134 0.0065,0.02183 0.01294,0.04383 0.01963,0.06563 0.0074,0.02397 0.01537,0.04737 0.02429,0.07079 0.01013,0.0274 0.02238,0.05385 0.03617,0.07958 0.01945,0.0349 0.03784,0.07052 0.05633,0.105939 0.02117,0.04126 0.03845,0.08429 0.05478,0.12764 0.01418,0.03728 0.02701,0.07504 0.04031,0.112655 0.0132,0.03676 0.02556,0.07381 0.03721,0.111103 0.01146,0.03794 0.02339,0.07548 0.03566,0.113171 0.01344,0.0422 0.02839,0.08412 0.04392,0.125576 0.01572,0.04169 0.03207,0.08308 0.04703,0.125056 0.01175,0.03429 0.02355,0.06867 0.03565,0.102835 0.01125,0.03235 0.02265,0.0647 0.03359,0.09715 0.01236,0.03575 0.02529,0.07125 0.03772,0.106972 0.01717,0.05022 0.03112,0.101224 0.04496,0.152445 0.0094,0.0357 0.01945,0.0713 0.02894,0.106968 0.0052,0.02064 0.01095,0.04111 0.01704,0.0615 0.0028,0.0118 0.0082,0.0227 0.01344,0.03359 0.009,0.01773 0.01722,0.03558 0.02532,0.05374 0.0065,0.01429 0.01344,0.02847 0.01963,0.04289 0.0027,0.0062 0.0051,0.01241 0.0078,0.0186 0.01386,0.03125 0.02331,0.0607 0.02894,0.08837 0.0083,0.01066 0.01894,0.01923 0.02687,0.02997 0.03398,0.05244 0.06765,0.107828 0.08217,0.1695 0.0071,0.03005 0.0141,0.06111 0.01394,0.09198 -1.69e-4,0.04179 -0.01,0.08253 -0.01497,0.124027 -5.29e-4,0.0013 -0.0011,0.0028 -0.0016,0.0041 0.0078,0.0089 0.01529,0.01815 0.02379,0.02585 0.01434,0.02924 0.03018,0.05785 0.04289,0.08785 0.009,0.02127 0.01553,0.04353 0.02222,0.06563 0.02074,0.06818 0.03432,0.138427 0.04806,0.208256 0.01254,0.0686 0.02418,0.137549 0.03307,0.206706 0.0077,0.05523 0.0087,0.110738 0.0078,0.166399 -0.0024,0.04834 -0.006,0.09723 -0.0186,0.144176 -0.0041,0.01543 -0.0093,0.03074 -0.01394,0.04599 -0.03096,0.08145 -0.08387,0.149794 -0.156061,0.198953 -0.03648,0.02484 -0.05352,0.02984 -0.0925,0.04599 -0.01926,0.0052 -0.03778,0.0118 -0.05736,0.01551 -0.06127,0.01167 -0.127508,0.01021 -0.188619,-0.0026 -0.01834,-0.0038 -0.03615,-0.0092 -0.05426,-0.01394 -0.04113,-0.01442 -0.08256,-0.03021 -0.120406,-0.05219 -0.003,-0.0019 -0.0058,-0.0039 -0.0088,-0.0057 -0.01392,0.0068 -0.02743,0.01423 -0.04186,0.02016 -0.01606,0.0061 -0.03181,0.01299 -0.04806,0.0186 -0.06734,0.02328 -0.13774,0.03649 -0.208257,0.04547 -0.06414,0.0074 -0.128624,0.01172 -0.192754,0.01913 -0.06586,0.0086 -0.13194,0.01714 -0.197919,0.02479 -0.08785,0.0098 -0.175696,0.01714 -0.264067,0.02016 -0.113636,0.0038 -0.227507,0.0039 -0.341064,-0.0026 -0.116231,-0.0062 -0.232196,-0.01402 -0.3483,-0.02222 -0.103791,-0.0077 -0.207642,-0.01929 -0.310057,-0.03824 -0.09314,-0.01643 -0.185793,-0.03464 -0.277503,-0.05788 -0.07786,-0.02008 -0.155271,-0.04217 -0.233061,-0.06253 -0.03805,-0.0092 -0.0763,-0.01746 -0.114724,-0.02479 -0.004,0.0059 -0.0079,0.01212 -0.01188,0.0181 -0.04306,0.06046 -0.103275,0.102473 -0.166915,0.138493 -0.03213,0.01823 -0.06026,0.03358 -0.09819,0.05064 -0.02445,0.0074 -0.04824,0.01773 -0.07338,0.02223 -0.107267,0.01918 -0.206701,-2.47e-4 -0.29714,-0.06253 -0.0624,-0.04297 -0.07453,-0.07195 -0.113689,-0.130226 -0.03091,-0.05685 -0.04451,-0.118636 -0.04961,-0.182417 -0.0013,-0.04118 -2.46e-4,-0.08223 0.0098,-0.122473 0.006,-0.0236 0.0122,-0.04808 0.02326,-0.06976 0.0104,-0.02035 0.0209,-0.04022 0.03152,-0.06046 0.01762,-0.02983 0.03678,-0.05361 0.05581,-0.07803 0.0013,-0.0016 0.0024,-0.0026 0.0036,-0.0041 0.02349,-0.0301 -0.0066,0.0088 0.0093,-0.01291 0.0079,-0.0109 0.01119,-0.01506 0.0062,-0.0088 0.02236,-0.0341 0.04849,-0.06511 0.07545,-0.09561 0.02088,-0.0177 0.04052,-0.03696 0.06253,-0.05323 0.01225,-0.009 0.02543,-0.01693 0.03876,-0.02429 0.0098,-0.02384 0.01992,-0.04729 0.02791,-0.07183 0.01775,-0.04652 0.0345,-0.0934 0.05323,-0.139526 0.02474,-0.06001 0.05078,-0.119319 0.0801,-0.17725 0.02315,-0.04532 0.04717,-0.09065 0.07235,-0.134876 0.02101,-0.03709 0.04142,-0.07459 0.06253,-0.11162 0.02852,-0.05368 0.05301,-0.109148 0.08061,-0.163298 0.04539,-0.09193 0.09263,-0.18329 0.141594,-0.27337 0.03621,-0.06712 0.07375,-0.133797 0.10232,-0.204637 0.02698,-0.06508 0.04699,-0.132559 0.06718,-0.199988 0.02347,-0.0794 0.04326,-0.15952 0.06356,-0.239779 0.02373,-0.09702 0.04687,-0.194283 0.0677,-0.291973 0.02291,-0.10583 0.04823,-0.211388 0.07906,-0.315224 0.03728,-0.124608 0.08013,-0.247486 0.134361,-0.365871 0.06663,-0.147823 0.137877,-0.293497 0.216006,-0.435631 0.04731,-0.08959 0.0963,-0.178338 0.140044,-0.269751 0.05788,-0.12102 0.127852,-0.207833 0.201022,-0.264583 0.03961,-0.146416 0.154662,-0.233331 0.28887,-0.231511 z m -1.991608,4.186825 c -0.0011,0.0021 -0.0024,0.0032 -0.0041,0.0067 -2.65e-4,5.29e-4 0.0013,-0.0011 0.0016,-0.0016 5.29e-4,-0.0011 0.0011,-0.0019 0.0026,-0.0052 z" />
    </clipPath>
    <clipPath
       clipPathUnits="userSpaceOnUse"
       id="clipPath53">
      <path
         id="path54"
         style="fill:#ff0000;fill-opacity:1;fill-rule:nonzero;stroke:none;stroke-width:0.264583"
         d="m 45.910376,55.910282 v 11.641666 h 9.736873 V 55.910282 Z m 4.850349,2.59054 c 0.143415,0.0019 0.308192,0.104836 0.424265,0.344681 0.01164,0.02405 0.02532,0.04717 0.03772,0.0708 0.04006,0.078 0.07579,0.158456 0.09302,0.244946 0.0061,0.03354 0.01048,0.06746 0.01394,0.101288 0.02666,-0.02463 0.05976,-0.03776 0.09457,-0.03772 0.07984,6.6e-5 0.16823,0.068 0.206706,0.21859 0.0046,0.01831 0.0092,0.03688 0.01344,0.05529 0.0043,0.01855 0.0093,0.03686 0.01394,0.05529 0.0026,0.01328 0.0047,0.01966 0.0083,0.03049 0.0047,0.01408 0.0088,0.02811 0.01291,0.04238 0.0041,0.01371 0.0087,0.02767 0.01291,0.04134 0.0065,0.02183 0.01294,0.04383 0.01963,0.06563 0.0074,0.02397 0.01537,0.04737 0.02429,0.07079 0.01013,0.0274 0.02238,0.05385 0.03617,0.07958 0.01945,0.0349 0.03784,0.07052 0.05633,0.105939 0.02117,0.04126 0.03845,0.08429 0.05478,0.12764 0.01418,0.03728 0.02701,0.07504 0.04031,0.112655 0.0132,0.03676 0.02556,0.07381 0.03721,0.111103 0.01146,0.03794 0.02339,0.07548 0.03566,0.113171 0.01344,0.0422 0.02838,0.08412 0.04392,0.125576 0.01572,0.04169 0.03207,0.08308 0.04703,0.125056 0.01175,0.03429 0.02355,0.06867 0.03566,0.102835 0.01124,0.03235 0.02265,0.0647 0.03359,0.09715 0.01236,0.03575 0.02529,0.07125 0.03772,0.106972 0.01717,0.05022 0.03112,0.101224 0.04496,0.152445 0.0094,0.0357 0.01945,0.0713 0.02894,0.106968 0.0052,0.02064 0.01095,0.04111 0.01704,0.0615 0.0028,0.0118 0.0082,0.0227 0.01344,0.03359 0.009,0.01773 0.01722,0.03558 0.02532,0.05374 0.0065,0.01429 0.01344,0.02847 0.01963,0.04289 0.0027,0.0062 0.0051,0.01241 0.0078,0.0186 0.01283,0.02891 0.02164,0.05631 0.02739,0.08216 0.0095,0.01206 0.01942,0.02394 0.02842,0.03617 0.03398,0.05244 0.06765,0.107828 0.08217,0.1695 0.0071,0.03005 0.0141,0.06111 0.01394,0.09198 -1.69e-4,0.04179 -0.01,0.08253 -0.01497,0.124027 -5.3e-4,0.0013 -0.0011,0.0028 -0.0016,0.0041 0.0078,0.0089 0.01529,0.01815 0.02379,0.02585 0.01434,0.02924 0.03018,0.05785 0.04289,0.08785 0.009,0.02127 0.01553,0.04353 0.02222,0.06563 0.02074,0.06818 0.03432,0.138427 0.04806,0.208256 0.01254,0.0686 0.02418,0.137549 0.03307,0.206706 0.0077,0.05523 0.0087,0.110738 0.0078,0.166399 -0.0024,0.04834 -0.006,0.09723 -0.0186,0.144176 -0.0041,0.01543 -0.0093,0.03074 -0.01394,0.04599 -0.03096,0.08145 -0.08387,0.149794 -0.156062,0.198953 -0.03648,0.02484 -0.05352,0.02984 -0.0925,0.04599 -0.01926,0.0052 -0.03778,0.0118 -0.05736,0.01551 -0.06127,0.01167 -0.127508,0.01021 -0.188619,-0.0026 -0.01834,-0.0038 -0.03615,-0.0092 -0.05426,-0.01394 -0.04113,-0.01442 -0.08256,-0.03021 -0.120407,-0.05219 -0.003,-0.0019 -0.0058,-0.0039 -0.0088,-0.0057 -0.01392,0.0068 -0.02743,0.01423 -0.04186,0.02016 -0.01606,0.0061 -0.03181,0.01299 -0.04806,0.0186 -0.06734,0.02328 -0.137739,0.03649 -0.208256,0.04547 -0.06414,0.0074 -0.128624,0.01172 -0.192754,0.01913 -0.06586,0.0086 -0.13194,0.01714 -0.197919,0.02479 -0.08785,0.0098 -0.175697,0.01714 -0.264067,0.02016 -0.113636,0.0038 -0.227508,0.0039 -0.341064,-0.0026 -0.116232,-0.0062 -0.232196,-0.01402 -0.3483,-0.02222 -0.103791,-0.0077 -0.207643,-0.01929 -0.310058,-0.03824 -0.09314,-0.01643 -0.185793,-0.03464 -0.277503,-0.05788 -0.07786,-0.02008 -0.15527,-0.04217 -0.23306,-0.06253 -0.03805,-0.0092 -0.0763,-0.01746 -0.114724,-0.02479 -0.004,0.0059 -0.0079,0.01212 -0.01188,0.0181 -0.04306,0.06046 -0.103274,0.102473 -0.166915,0.138493 -0.03213,0.01823 -0.06026,0.03358 -0.09818,0.05064 -0.02445,0.0074 -0.04824,0.01773 -0.07338,0.02223 -0.107268,0.01918 -0.206701,-2.47e-4 -0.297141,-0.06253 -0.0624,-0.04297 -0.07453,-0.07195 -0.113689,-0.130226 -0.03091,-0.05685 -0.04451,-0.118636 -0.04961,-0.182417 -0.0013,-0.04118 -2.46e-4,-0.08223 0.0098,-0.122473 0.006,-0.0236 0.0122,-0.04808 0.02326,-0.06976 0.0104,-0.02035 0.0209,-0.04022 0.03152,-0.06046 0.01762,-0.02983 0.03678,-0.05361 0.05581,-0.07803 0.0013,-0.0016 0.0024,-0.0026 0.0036,-0.0041 0.0235,-0.0301 -0.0066,0.0088 0.0093,-0.01291 0.0079,-0.0109 0.01119,-0.01506 0.0062,-0.0088 0.02236,-0.0341 0.04849,-0.06511 0.07545,-0.09561 0.02087,-0.0177 0.04052,-0.03696 0.06253,-0.05323 0.01225,-0.009 0.02543,-0.01693 0.03876,-0.02429 0.0098,-0.02384 0.01992,-0.04729 0.02791,-0.07183 0.01775,-0.04652 0.0345,-0.0934 0.05323,-0.139526 0.02474,-0.06001 0.05078,-0.119319 0.0801,-0.17725 0.02315,-0.04532 0.04717,-0.09065 0.07235,-0.134876 0.02101,-0.03709 0.04142,-0.07459 0.06253,-0.11162 0.02852,-0.05368 0.05301,-0.109148 0.08061,-0.163298 0.04539,-0.09193 0.09263,-0.18329 0.141595,-0.27337 0.03621,-0.06712 0.07375,-0.133797 0.10232,-0.204637 0.02698,-0.06508 0.04699,-0.132559 0.06718,-0.199988 0.02347,-0.0794 0.04326,-0.15952 0.06356,-0.239779 0.02373,-0.09702 0.04686,-0.194283 0.0677,-0.291973 0.02291,-0.10583 0.04823,-0.211388 0.07906,-0.315224 0.03728,-0.124608 0.08013,-0.247486 0.134361,-0.365871 0.06663,-0.147823 0.137877,-0.293497 0.216005,-0.435631 0.04731,-0.08959 0.0963,-0.178338 0.140044,-0.269751 0.05788,-0.12102 0.127852,-0.207833 0.201023,-0.264583 0.03961,-0.146416 0.154662,-0.233331 0.288869,-0.231511 z m -1.991608,4.186825 c -0.0011,0.0021 -0.0024,0.0032 -0.0041,0.0067 -2.65e-4,5.29e-4 0.0013,-0.0011 0.0016,-0.0016 5.29e-4,-0.0011 0.0011,-0.0019 0.0026,-0.0052 z" />
    </clipPath>
  </defs>
  <g
     inkscape:label="Camada 1"
     inkscape:groupmode="layer"
     id="layer1">
    <path
       id="path1"
       style="stroke-width:0.0760288;fill:#fdfdfd;fill-opacity:0"
       d="M 0.03152262,0.87694906 V 119.41028 H 122.37496 V 0.87694906 Z M 50.869246,56.862162 c 0.0085,-5.4e-5 0.0171,9.31e-4 0.02584,0.0031 0.02381,0.0059 0.03391,0.01618 0.05323,0.02997 0.03904,0.03373 0.07063,0.07486 0.100253,0.116789 0.01689,0.02501 0.03261,0.05089 0.04857,0.07648 6.85e-4,7.5e-5 0.0014,-6.9e-5 0.0021,0 0.03549,0.0387 0.06178,0.06791 0.0832,0.114205 0.02073,0.03398 0.04153,0.06822 0.05943,0.10387 0.01534,0.03696 0.0384,0.07045 0.05374,0.107487 0.02058,0.049 0.0404,0.09843 0.05581,0.149344 0.01529,0.05056 0.03455,0.09972 0.05116,0.149862 0.02949,0.08813 0.05175,0.178714 0.07855,0.267684 0.03344,0.115088 0.06317,0.23086 0.0956,0.346232 0.03697,0.130923 0.0685,0.263629 0.106453,0.394291 0.04283,0.150183 0.08351,0.301095 0.142627,0.445968 0.07378,0.183568 0.158706,0.36211 0.241846,0.541569 0.08214,0.174834 0.164073,0.350219 0.227893,0.532784 0.05603,0.147893 0.111886,0.295919 0.153996,0.448551 0.04631,0.151799 0.08636,0.305346 0.130224,0.457854 0.03635,0.124559 0.07048,0.249644 0.112138,0.372587 0.03099,0.09528 0.06299,0.19003 0.09715,0.28422 0.0246,0.06939 0.05344,0.137439 0.07545,0.207739 0.02357,0.07854 0.0451,0.157952 0.05685,0.239262 0.01152,0.08783 0.0213,0.176031 0.0248,0.264583 0.0037,0.09843 0.0028,0.196706 -0.01034,0.294556 -0.01789,0.133317 -0.04285,0.264089 -0.142627,0.362769 -0.02223,0.01503 -0.04293,0.03294 -0.06666,0.04548 -0.06746,0.03562 -0.143271,0.03507 -0.217041,0.03927 -0.06793,0.0059 -0.135365,0.01629 -0.203605,0.01809 -0.08087,0.0045 -0.161942,0.01035 -0.242362,0.02015 -0.06822,0.008 -0.136279,0.0152 -0.204639,0.0217 -0.0617,0.0056 -0.123035,0.01442 -0.184485,0.02222 -0.08522,0.0065 -0.170238,0.01274 -0.255798,0.0098 -0.119488,-2.4e-5 -0.239147,-4.05e-4 -0.358635,-5.17e-4 -0.09372,-1.15e-4 -0.187399,2.78e-4 -0.281119,-5.16e-4 -0.08385,-9e-4 -0.167865,-0.0022 -0.251665,-0.0052 -0.09326,-0.0038 -0.186469,-0.01035 -0.279569,-0.01705 -0.118823,-0.0065 -0.237822,-0.0067 -0.356567,-0.01499 -0.09427,-0.0053 -0.188311,-0.0062 -0.282671,-0.0093 -0.08469,-0.0042 -0.169331,-0.01092 -0.253731,-0.01912 -0.06231,-0.0053 -0.124816,-0.0085 -0.187068,-0.01447 -0.06069,-2.9e-5 -0.121222,-3.65e-4 -0.181902,-5.17e-4 -0.06103,-2e-4 -0.122431,-5.5e-4 -0.183451,-0.0015 -0.05074,-0.0015 -0.101252,-0.0035 -0.151412,-0.01189 -0.09237,-0.019 -0.174817,-0.0598 -0.214457,-0.151928 -0.0093,-0.0217 -0.01219,-0.04585 -0.01809,-0.06873 1.64e-4,-0.0202 -0.0014,-0.04034 5.17e-4,-0.06046 0.0066,-0.06879 0.04219,-0.130413 0.07183,-0.191203 0.03685,-0.08241 0.07527,-0.164023 0.114205,-0.245463 0.03863,-0.08161 0.07392,-0.164883 0.114722,-0.245463 0.0508,-0.10278 0.09722,-0.207232 0.145727,-0.311092 0.06877,-0.148728 0.135619,-0.298591 0.206189,-0.446485 0.06486,-0.145805 0.129696,-0.291661 0.189136,-0.439766 0.05658,-0.13948 0.108353,-0.280493 0.157613,-0.422713 0.06644,-0.187387 0.131799,-0.375213 0.206189,-0.559656 0.06085,-0.157146 0.125902,-0.312962 0.185002,-0.470772 0.02633,-0.07252 0.05315,-0.144558 0.08217,-0.216008 0.03207,-0.07938 0.06709,-0.157642 0.10232,-0.235644 0.0538,-0.120347 0.105791,-0.241551 0.149861,-0.36587 0.03967,-0.112846 0.07921,-0.225598 0.117306,-0.338997 0.02183,-0.06354 0.04516,-0.126516 0.06511,-0.190686 0.01271,-0.04173 0.02877,-0.08239 0.03979,-0.12454 0.01413,-0.06728 0.03123,-0.133605 0.04703,-0.200505 0.01214,-0.05373 0.02716,-0.10673 0.03566,-0.16123 0.0094,-0.04361 0.01622,-0.08758 0.02532,-0.131258 0.0074,-0.05568 0.01832,-0.110875 0.02222,-0.166915 0.0042,-0.06167 0.0043,-0.123709 0.0036,-0.185519 l 5.17e-4,5.17e-4 c -3.82e-4,-0.03342 0.01106,-0.0515 0.01654,-0.07752 -0.0057,-0.02122 -0.0029,-0.04895 0.01292,-0.08113 8e-4,-0.0015 0.0013,-0.0026 0.0021,-0.0041 0.0065,-0.01598 0.01372,-0.03165 0.01912,-0.04806 0.0063,-0.01898 0.01395,-0.03756 0.02325,-0.05529 0.0096,-0.01816 0.01863,-0.03698 0.03204,-0.05271 0.01134,-0.01374 0.02151,-0.02306 0.03359,-0.03514 0.0098,-0.0084 0.01994,-0.01602 0.02894,-0.02532 0.0085,-0.0068 0.01639,-0.01224 0.02429,-0.01964 0.01586,-0.01542 0.03253,-0.02934 0.05219,-0.03979 0.02007,-0.0096 0.04133,-0.01632 0.06304,-0.01654 0.0072,-7.4e-5 0.01427,6.26e-4 0.0217,0.0021 0.0038,7.06e-4 0.0073,0.0017 0.01085,0.0026 0.0098,-0.0035 0.0178,-0.01233 0.02842,-0.0124 z m 0.0031,2.382801 c -0.0094,0.01358 -0.01877,0.02742 -0.02842,0.04082 -0.02235,0.02807 -0.09761,0.129274 -0.131775,0.146244 -0.05249,0.02606 -0.113952,0.06976 -0.168982,0.04961 -0.146642,-0.05368 -0.166136,-0.127042 -0.15813,-0.22996 -0.01379,0.03176 -0.02515,0.06451 -0.03927,0.09612 -0.03325,0.07369 -0.06594,0.147198 -0.09612,0.222208 -0.02769,0.06714 -0.05272,0.135333 -0.07751,0.203605 -0.05983,0.160444 -0.125775,0.318331 -0.187585,0.478007 -0.07306,0.181006 -0.137362,0.365405 -0.202572,0.549321 -0.05107,0.147634 -0.104667,0.294453 -0.163297,0.43925 -0.06105,0.152083 -0.127734,0.301908 -0.194304,0.451652 -0.07125,0.149637 -0.139242,0.300696 -0.208772,0.451135 -0.04981,0.106911 -0.09817,0.214617 -0.150379,0.320394 -0.03961,0.07865 -0.07406,0.159622 -0.111621,0.239262 -0.02848,0.05965 -0.05618,0.119744 -0.08372,0.179834 0.03899,3.61e-4 0.0778,0.001 0.116789,0.001 0.06037,1.51e-4 0.121014,-2.8e-5 0.181384,0 0.07305,0.0048 0.145632,0.01002 0.218592,0.01602 0.07996,0.0077 0.160055,0.01419 0.240295,0.01809 0.09525,0.0028 0.190621,0.0045 0.285771,0.0098 0.118386,0.0079 0.237076,0.0089 0.355534,0.01499 0.09153,0.0065 0.183228,0.01284 0.274918,0.01654 0.07995,0.0029 0.159789,0.0038 0.239779,0.0047 0.09253,7.78e-4 0.184972,0.001 0.277502,0.001 0.119356,1.12e-4 0.238762,-2.3e-5 0.358118,0 0.07584,0.003 0.151347,-0.0031 0.226859,-0.0088 0.05933,-0.0089 0.118544,-0.0162 0.178284,-0.0217 0.06489,-0.0061 0.13009,-0.01235 0.19482,-0.02015 0.08835,-0.01081 0.177284,-0.01774 0.266134,-0.02274 0.02842,-8.87e-4 0.05654,-0.0049 0.08475,-0.0078 -0.03333,-0.02606 -0.06582,-0.06209 -0.09457,-0.112654 -0.0095,-0.01677 -0.01892,-0.03387 -0.02842,-0.05064 -0.07302,-0.13003 -0.141719,-0.261878 -0.209289,-0.394808 -0.08117,-0.161918 -0.161284,-0.324871 -0.232544,-0.491443 -0.03394,-0.08322 -0.06703,-0.166224 -0.09508,-0.251664 -0.01097,-0.03341 -0.02534,-0.08342 -0.03514,-0.117823 -0.0051,-0.0177 -0.01,-0.03552 -0.01499,-0.05323 -0.02731,-0.09944 -0.05406,-0.19877 -0.07958,-0.29869 -0.02373,-0.09525 -0.04792,-0.190584 -0.0739,-0.285254 -0.03445,-0.125546 -0.06852,-0.250998 -0.102319,-0.376721 -0.0388,-0.147259 -0.0764,-0.295103 -0.115239,-0.442351 -0.03912,-0.149944 -0.0787,-0.299817 -0.120406,-0.449068 -0.02324,-0.08539 -0.04686,-0.17084 -0.06976,-0.256315 -0.01072,-7.93e-4 -0.0213,-0.0023 -0.03204,-0.0031 -0.0045,0.02062 -0.01004,0.04099 -0.01705,0.06098 -0.06711,0.19124 -0.118463,0.01274 -0.176733,-0.115755 z m -0.133325,0.04289 c -0.02188,0.06277 0.0073,0.01041 0.0036,0.0052 -0.0012,-0.0017 -0.0025,-0.0035 -0.0036,-0.0052 z m 0.781864,0.201538 c 0.03957,0.142426 0.07741,0.285369 0.114722,0.428398 0.03877,0.146965 0.07599,0.294343 0.114722,0.441316 0.03349,0.124545 0.06767,0.248732 0.101802,0.373104 0.02673,0.09739 0.05155,0.195534 0.07597,0.293522 0.02486,0.09712 0.05093,0.193752 0.07751,0.290422 0.0047,0.01692 0.0092,0.03373 0.01395,0.05064 0.0091,0.03184 0.02276,0.07884 0.03307,0.110071 0.02477,0.07503 0.05431,0.148095 0.08423,0.221175 0.06796,0.157972 0.143579,0.312439 0.220659,0.466121 0.03585,0.07037 0.07206,0.140518 0.109037,0.210323 -3.55e-4,-0.01379 -9.68e-4,-0.02758 -0.0016,-0.04134 -0.0026,-0.05554 -0.0056,-0.110791 -0.01344,-0.165881 -0.0116,-0.07453 -0.02666,-0.148712 -0.03824,-0.223242 -0.0117,-0.05759 -0.02908,-0.113226 -0.04909,-0.168466 -0.02604,-0.07033 -0.04921,-0.14176 -0.07441,-0.21239 -0.02352,-0.06256 -0.04308,-0.126569 -0.06356,-0.190169 -0.02434,-0.07483 -0.05138,-0.148396 -0.07235,-0.224276 -0.02718,-0.09139 -0.05713,-0.181911 -0.08578,-0.272851 -0.02168,-0.0717 -0.04356,-0.143614 -0.0708,-0.213424 -0.02737,-0.05786 -0.05792,-0.114186 -0.0863,-0.171566 -0.02832,-0.05836 -0.05439,-0.117836 -0.08268,-0.176216 -0.01791,-0.04742 -0.04268,-0.09224 -0.05994,-0.140043 -0.02053,-0.05684 -0.04226,-0.113276 -0.06305,-0.170016 -0.02661,-0.07427 -0.05176,-0.149052 -0.07855,-0.223242 -0.02486,-0.07045 -0.05029,-0.140821 -0.07338,-0.211873 -0.0095,-0.02726 -0.02116,-0.05362 -0.03256,-0.0801 z m -2.717663,3.533118 c -0.0019,0.0042 -0.0036,0.0086 -0.0052,0.01292 -8.75e-4,0.0023 -0.0035,0.0086 -0.0015,0.0072 0.006,-0.0041 0.0068,-0.01204 0.0067,-0.02015 z"
       clip-path="url(#clipPath50)" />
    <path
       d="m 69.617032,2.3587931 c 0.2667,0.03725 0.2667,0.03725 0.53763,0.07535 5.461,0.772584 10.64684,2.497667 15.5575,4.995334 0.20024,0.101811 0.20024,0.101811 0.40429,0.205528 2.09338,1.0795 3.91583,2.4553329 5.75733,3.9158329 0.3429,0.27305 0.69003,0.53975 1.03505,0.808567 2.667,2.099734 5.03767,4.550834 6.985,7.344834 0.132078,0.188171 0.132078,0.188171 0.266698,0.381 4.74133,6.815666 7.72583,14.351 9.56733,22.436667 0.0377,0.164465 0.0754,0.328083 0.11409,0.499533 0.62654,2.751666 0.62654,2.751666 0.62654,3.767666 -2.0066,0.005 -4.02167,0.009 -6.0325,0.011 -0.93134,10e-4 -1.86479,0.003 -2.794,0.005 -0.89959,0.002 -1.797048,0.004 -2.688168,0.004 -0.3429,4.2e-4 -0.68792,10e-4 -1.03082,0.002 -0.48048,0.001 -0.95885,0.002 -1.43933,0.002 -0.41063,6.4e-4 -0.41063,6.4e-4 -0.82973,10e-4 -0.63712,-0.0254 -0.63712,-0.0254 -1.06045,-0.23706 -0.14394,-0.57362 -0.26247,-1.13665 -0.36619,-1.71662 -0.0692,-0.36195 -0.13843,-0.723905 -0.20764,-1.087971 -0.0536,-0.28575 -0.0536,-0.28575 -0.10816,-0.57785 -0.57997,-3.069167 -1.17899,-6.117167 -2.13784,-9.101667 -0.12848,-0.397933 -0.24976,-0.8001 -0.3683,-1.202267 -2.0701,-6.6675 -5.3975,-13.356167 -10.287,-18.393833 -0.48683,-0.510117 -0.48683,-0.510117 -0.92921,-1.064684 -0.61595,-0.76835 -1.33985,-1.361016 -2.09762,-1.985433 -0.19897,-0.164465 -0.39793,-0.328083 -0.60325,-0.499533 -4.16983,-3.3654999 -9.22867,-5.7149999 -14.64734,-5.8419999 -0.41063,-0.01268 -0.41063,-0.01268 -0.82973,-0.02561 -5.0165,-0.105622 -9.652,0.757767 -13.99117,3.407833 -0.19854,0.117264 -0.39793,0.23495 -0.60113,0.3556 -1.88383,1.14935 -3.57717,2.5188339 -5.12233,4.0851669 -0.15727,0.152823 -0.31327,0.3048 -0.47625,0.46355 -1.22767,1.255183 -2.37067,2.497667 -3.34434,3.979333 -0.14033,0.195369 -0.28151,0.391584 -0.42545,0.592667 -2.921,4.064 -5.03766,8.614834 -6.56166,13.377334 -0.0618,0.193463 -0.12383,0.38735 -0.18754,0.586316 -1.42875,4.529667 -2.667,9.144 -3.132666,13.864168 -0.06858,0.57362 -0.06858,0.57362 -0.2794,0.99695 H 12.860943 c -0.2413,-0.72602 -0.173779,-1.00118 -0.0066,-1.73778 0.05038,-0.22225 0.100541,-0.4445 0.1524,-0.6731 0.05673,-0.239188 0.113241,-0.478371 0.171661,-0.723904 0.058,-0.24765 0.115994,-0.493184 0.175895,-0.747184 1.221317,-5.08 3.005667,-9.906 5.439834,-14.5415 0.119168,-0.230716 0.239183,-0.46355 0.36195,-0.702733 2.091267,-4.0005 4.656667,-7.450667 7.62,-10.837334 0.239183,-0.275166 0.474133,-0.55245 0.709083,-0.83185 0.840317,-0.9906 1.748366,-1.833033 2.751666,-2.667 0.20701,-0.175895 0.41486,-0.351366 0.62653,-0.5334 1.0287,-0.86995 2.04893,-1.699683 3.175,-2.434166 0.17632,-0.113877 0.17632,-0.113877 0.3556,-0.230717 5.69383,-3.6618329 11.57817,-6.3499999 18.26683,-7.5988329 0.19707,-0.03852 0.3937,-0.07705 0.5969,-0.116629 5.48217,-0.999067 10.83734,-0.893233 16.34067,-0.09504 z"
       fill="#4b4b4b"
       id="path2"
       style="stroke-width:0.211667;fill:#000000;fill-opacity:1" />
    <path
       d="m 22.627027,77.712125 c 0.65405,-0.002 1.3081,-0.009 1.96215,-0.0153 0.4191,-0.001 0.840317,-0.002 1.259417,-0.003 0.193675,-0.003 0.38735,-0.005 0.586316,-0.008 1.767417,0.006 1.767417,0.006 2.540002,0.71331 0.2159,0.49107 0.2159,0.49107 0.33655,1.07104 0.0474,0.2159 0.0946,0.42968 0.1433,0.65193 0.0468,0.23072 0.0935,0.46143 0.14181,0.6985 0.10711,0.4826 0.2159,0.9652 0.32385,1.4478 0.0538,0.2413 0.10753,0.48048 0.16299,0.73025 0.6985,3.00567 1.72931,5.88434 2.921,8.74184 0.065,0.15769 0.12975,0.31538 0.19664,0.47836 2.94216,7.06967 7.83166,14.033505 14.4145,18.139845 0.12022,0.076 0.2413,0.15197 0.36406,0.23071 6.05367,3.76767 13.22917,4.826 20.17184,3.3655 5.29166,-1.30598 9.54616,-4.21216 13.335,-8.04333 0.14224,-0.14266 0.28363,-0.28575 0.4318,-0.4318 1.57691,-1.66793 2.794,-3.556 4.02166,-5.503335 0.0955,-0.14944 0.19071,-0.29845 0.28999,-0.45297 3.556,-5.63033 5.48216,-12.10734 7.00616,-18.56317 0.0641,-0.27093 0.12827,-0.53975 0.19431,-0.81915 0.0553,-0.23918 0.11049,-0.47837 0.16743,-0.7239 0.14944,-0.54187 0.29845,-0.98637 0.59267,-1.46473 0.59478,-0.29634 1.08585,-0.23919 1.75048,-0.23919 0.2794,-6.6e-4 0.5588,-0.001 0.84455,-0.002 0.3048,3.8e-4 0.61172,8.2e-4 0.91652,10e-4 0.31115,-1.4e-4 0.62441,-3.5e-4 0.93556,-6.1e-4 0.65405,-3.2e-4 1.3081,1.4e-4 1.962148,0.001 0.84032,10e-4 1.68064,5.1e-4 2.51884,-7.6e-4 0.64346,-7.6e-4 1.28905,-5.2e-4 1.93251,3e-5 0.30904,1.4e-4 0.62019,-3e-5 0.92922,-5.3e-4 0.4318,-5.3e-4 0.8636,4.3e-4 1.29752,10e-4 0.37041,2.6e-4 0.37041,2.6e-4 0.74718,5.1e-4 0.55245,0.0269 0.55245,0.0269 0.76412,0.23919 -0.10033,1.38218 -0.45085,2.64583 -0.85937,3.97933 -0.0982,0.31962 -0.0982,0.31962 -0.19854,0.64347 -1.905,6.05366 -4.78367,11.7475 -8.678338,16.764 -0.14541,0.1905 -0.28998,0.381 -0.44026,0.57785 -2.7305,3.492505 -5.99017,6.963835 -9.7155,9.376835 -0.27094,0.18182 -0.54187,0.36407 -0.81069,0.5461 -1.98543,1.32927 -4.0005,2.4765 -6.18066,3.47134 -0.14055,0.0654 -0.28152,0.13081 -0.42545,0.19833 -9.16517,4.23333 -20.34117,5.31283 -30.26834,3.40783 -0.24553,-0.0466 -0.48895,-0.0933 -0.74083,-0.14139 -6.81567,-1.3462 -13.1445,-3.95817 -18.7325,-8.10684 -0.12552,-0.0927 -0.25188,-0.18542 -0.381,-0.28151 -1.49437,-1.11125 -2.89983,-2.30717 -4.2545,-3.57717 -0.127635,-0.11811 -0.256117,-0.23707 -0.38735,-0.35772 -5.926667,-5.588005 -9.546167,-13.165665 -12.107333,-20.764505 -0.06011,-0.17653 -0.120227,-0.35348 -0.182245,-0.53551 -1.06045,-3.13267 -1.06045,-3.13267 -1.087967,-4.7625 0.658283,-0.65829 1.468967,-0.52282 2.3495,-0.55245 0.296333,-0.0118 0.296333,-0.0118 0.5969,-0.0237 2.116667,-0.0779 4.233333,-0.10562 6.35,-0.10964 z"
       fill="#4b4b4b"
       id="path3"
       style="stroke-width:0.211667;fill:#070707;fill-opacity:1" />
    <path
       id="path5"
       style="stroke-width:0.211667;fill:#000000;fill-opacity:1"
       d="m 19.438607,55.857056 c -0.693084,-0.0019 -1.350419,0.118969 -1.88619,0.65474 -0.02688,0.34502 -0.04871,0.690016 -0.04806,1.037146 0.0028,0.15452 0.0055,0.3059 0.0083,0.45682 0.0051,0.537619 0.01281,1.077733 0.02377,1.617472 0.0054,0.23707 0.01082,0.465362 0.01602,0.696082 0.02391,1.079489 0.05016,2.159073 0.07958,3.238562 0.0045,0.162969 0.0086,0.321851 0.01292,0.48059 0.01228,0.4699 0.02471,0.941858 0.03876,1.413868 0.0046,0.148159 0.009,0.293656 0.01344,0.438216 0.01693,0.533389 -0.12048,1.225701 0.27957,1.62574 0.353472,0.009 0.70485,0.009 1.058333,0 0.02095,-0.474119 0.04216,-0.948565 0.0646,-1.420585 0.0094,-0.19685 0.01881,-0.386833 0.02791,-0.577742 0.0127,-0.28998 0.01283,-0.289926 0.02532,-0.575676 0.0091,-0.18627 0.01797,-0.367527 0.02687,-0.548287 0.02117,-0.455069 -0.04903,-0.782963 0.279053,-1.111043 0.711189,-0.17501 0.711316,-0.174863 1.229899,-0.156063 0.770456,0.42545 0.770582,0.425106 1.229899,1.227315 0.888989,1.536689 1.725188,2.664774 3.259749,3.577043 l 0.211357,-0.42323 c -0.262467,-0.654039 -0.57747,-1.189537 -0.985987,-1.765267 -0.787389,-1.100659 -1.360983,-2.042732 -1.765267,-3.323311 0.4318,-0.07196 0.850601,-0.141457 1.26969,-0.211357 l 0.211874,-0.635103 h 0.42323 c 0.262456,-0.45509 0.418046,-0.795867 0.471806,-1.322917 -0.0031,-0.16722 -0.0058,-0.327569 -0.0088,-0.488859 -0.0064,-0.732359 -0.08899,-1.28908 -0.459404,-1.9389 -0.08742,-0.126989 -0.172075,-0.252261 -0.256315,-0.376721 -0.08446,-0.127 -0.16604,-0.252261 -0.24753,-0.376721 -0.806439,-0.846659 -1.735399,-1.073916 -2.878377,-1.141016 -0.22225,-0.0084 -0.222218,-0.0086 -0.442351,-0.01757 l -0.01602,0.01912 c -0.423069,-0.02619 -0.851783,-0.07123 -1.267623,-0.07235 z m 1.069185,0.888318 c 0.08108,0.0016 0.161926,0.0057 0.242879,0.01344 0.230783,0.01691 0.461072,0.03807 0.691431,0.05994 0.153835,0.0148 0.308764,0.02478 0.460954,0.05271 0.1477,0.02561 0.297716,0.04199 0.441317,0.08733 0.14876,0.04552 0.293166,0.105521 0.430464,0.178801 0.08843,0.05016 0.169655,0.110635 0.253215,0.168465 0.08865,0.0658 0.173188,0.134919 0.238228,0.225309 0.06624,0.08792 0.13199,0.176704 0.19172,0.269234 0.07313,0.115318 0.147327,0.229703 0.216007,0.347783 0.06667,0.118649 0.134063,0.23829 0.183451,0.365352 0.0427,0.122639 0.07908,0.247021 0.08888,0.377238 0.0137,0.152691 0.02408,0.305836 0.0067,0.458887 -0.01264,0.149389 -0.03115,0.298573 -0.07752,0.441833 -0.04284,0.128864 -0.08895,0.257199 -0.145211,0.380856 -0.05471,0.114307 -0.102834,0.232113 -0.162264,0.344165 -0.07624,0.140246 -0.156294,0.277843 -0.253214,0.405143 -0.11512,0.149138 -0.244321,0.289148 -0.411861,0.380338 -0.02626,0.01246 -0.05391,0.02159 -0.08062,0.03307 -0.03451,0.02364 -0.06984,0.04611 -0.106971,0.06563 -0.118009,0.05583 -0.240086,0.100106 -0.370003,0.118856 -0.05484,0.0093 -0.110066,0.01645 -0.165364,0.02274 -0.09186,0.02415 -0.183926,0.04691 -0.276469,0.06873 -0.203815,0.04085 -0.408293,0.08095 -0.6165,0.09095 -0.210941,0.01027 -0.421998,0.01396 -0.63252,-0.0078 -0.249791,-0.02092 -0.498862,-0.05046 -0.747241,-0.08423 -0.206521,-0.02942 -0.413093,-0.05876 -0.617017,-0.103353 -0.08747,-0.01936 -0.17248,-0.04596 -0.25063,-0.09095 -0.08893,-0.04777 -0.171774,-0.106779 -0.247014,-0.174149 -0.111014,-0.113533 -0.159807,-0.191517 -0.177767,-0.352433 -0.01433,-0.17315 -0.0048,-0.346855 -0.0036,-0.520382 0.0037,-0.19261 0.0075,-0.385497 0.02067,-0.577743 0.0095,-0.158244 0.01257,-0.31658 0.02067,-0.474906 0.0065,-0.107192 0.01262,-0.214487 0.0098,-0.321944 4e-4,-0.08579 9e-4,-0.171579 0.0031,-0.257349 0.0036,-0.135878 0.009,-0.27152 0.01705,-0.40721 0.01303,-0.206428 0.02665,-0.413047 0.05891,-0.617533 0.01792,-0.121461 0.03962,-0.242793 0.06304,-0.363286 0.01108,-0.05699 0.03142,-0.09923 0.05633,-0.128157 -9.01e-4,-0.02143 0.01606,-0.04612 0.05581,-0.05891 0.02348,-0.0076 0.04588,-0.01767 0.06873,-0.02687 0.02092,-0.0074 0.04141,-0.0166 0.06201,-0.02481 0.02303,-0.0092 0.04703,-0.01452 0.07131,-0.01912 0.02885,-0.006 0.05784,-0.01124 0.08682,-0.01654 0.02932,-0.0056 0.05849,-0.01107 0.08682,-0.02067 0.02234,-0.0083 0.04386,-0.01952 0.06408,-0.03204 0.01685,-0.011 0.03232,-0.02418 0.04806,-0.03669 0.01824,-0.01547 0.03728,-0.02892 0.05736,-0.04186 0.0236,-0.01583 0.04715,-0.02662 0.07441,-0.03462 0.0086,-0.0025 0.01637,-0.0041 0.02377,-0.0047 0.0014,-1.01e-4 0.0028,3.9e-5 0.0041,0 0.0912,-0.04589 0.184533,-0.08496 0.286804,-0.09974 0.136982,-0.02418 0.273906,-0.05266 0.413411,-0.05736 0.08119,-0.0022 0.162321,-0.0031 0.243396,-0.0016 z" />
    <path
       d="m 62.208692,55.910465 c 1.71873,1.61078 3.048,3.556 4.3815,5.48217 1.00118,1.59173 1.00118,1.59173 2.39183,2.77283 0.004,-0.2286 0.008,-0.4572 0.0127,-0.69215 0.0161,-0.84667 0.0349,-1.69333 0.0544,-2.54 0.008,-0.36618 0.0155,-0.73237 0.022,-1.10067 0.01,-0.52705 0.022,-1.05198 0.0347,-1.57903 0.002,-0.16446 0.005,-0.32808 0.007,-0.49742 0.032,-1.16205 0.032,-1.16205 0.50376,-1.63406 0.2794,0.0698 0.5588,0.1397 0.84667,0.21166 v 11.21834 c -1.60232,-0.31962 -2.26483,-1.40124 -3.15383,-2.70934 -0.27729,-0.42121 -0.55245,-0.84455 -0.82762,-1.26788 -0.49742,-0.74083 -1.02235,-1.45203 -1.56633,-2.159 -0.0872,-0.1143 -0.17463,-0.2286 -0.26459,-0.34713 -0.49741,-0.64347 -1.00753,-1.19169 -1.5875,-1.76954 -0.0699,2.7305 -0.1397,5.43984 -0.21166,8.255 -0.4191,-0.0699 -0.8382,-0.1397 -1.27,-0.21166 -0.0107,-1.42664 -0.0182,-2.8575 -0.0233,-4.27567 -0.002,-0.48472 -0.005,-0.97155 -0.009,-1.45627 -0.005,-0.6985 -0.008,-1.397 -0.009,-2.0955 -0.002,-0.2159 -0.004,-0.43391 -0.007,-0.65616 -3e-5,-0.20341 -6e-5,-0.4064 -9e-5,-0.61595 -9.4e-4,-0.17823 -0.002,-0.3556 -0.003,-0.53975 0.0641,-0.6477 0.21378,-1.31022 0.6858,-1.78224 z"
       fill="#4b4b4b"
       id="path6"
       style="stroke-width:0.211667;fill:#000000;fill-opacity:1" />
    <path
       id="path7"
       style="stroke-width:0.211667;fill:#000000;fill-opacity:1"
       d="m 50.778813,55.910282 c 0.0013,0.0012 0.0023,0.0024 0.0036,0.0036 0.0025,-0.0013 0.0042,-0.0024 0.0067,-0.0036 z m 0.0036,0.0036 c -0.758671,0.377273 -0.764107,0.390411 -2.257743,4.293278 -0.13399,0.353483 -0.133994,0.353655 -0.264584,0.698665 -0.821263,2.137826 -1.608904,4.27577 -2.349727,6.434749 0.35983,0.07197 0.70909,0.141457 1.058333,0.211357 0.21378,-0.533393 0.21368,-0.5334 0.42323,-1.058333 l 0.846977,-2.116667 c 1.587486,-0.07197 3.119877,-0.141457 4.656563,-0.211357 0.26035,0.52705 0.520392,1.053835 0.784965,1.576648 0.13758,0.27305 0.137899,0.273319 0.273369,0.540019 0.317493,0.647693 0.317603,0.64771 0.635103,1.058333 0.569373,0.17187 0.56939,0.171557 1.058333,0.211357 0,-0.778933 -0.118508,-1.250908 -0.397908,-1.964221 -0.06265,-0.15663 -0.123785,-0.30611 -0.184485,-0.45682 -0.13547,-0.338663 -0.26907,-0.677348 -0.40411,-1.013891 -0.266693,-0.6604 -0.535371,-1.323363 -0.799951,-1.987993 -0.22014,-0.552443 -0.442826,-1.104856 -0.665076,-1.655196 -0.112173,-0.27728 -0.22588,-0.556261 -0.33848,-0.833541 C 52.747237,59.367316 52.638313,59.093749 52.529093,58.820699 52.420554,58.558265 52.31616,58.302136 52.2118,58.048136 51.848403,57.152316 51.507823,56.558115 50.78243,55.9139 Z m 0.08682,0.948262 c 0.0085,-5.4e-5 0.0171,9.31e-4 0.02584,0.0031 0.02381,0.0059 0.03391,0.01618 0.05323,0.02997 0.03904,0.03373 0.07063,0.07486 0.100253,0.116789 0.0168,0.02489 0.03269,0.05049 0.04857,0.07596 6.87e-4,7.5e-5 0.0014,4.48e-4 0.0021,5.17e-4 0.03549,0.0387 0.06178,0.06791 0.0832,0.114205 0.02073,0.03398 0.04153,0.06822 0.05943,0.10387 0.01534,0.03696 0.0384,0.07045 0.05374,0.107487 0.02058,0.049 0.0404,0.09843 0.05581,0.149344 0.01529,0.05056 0.03455,0.09972 0.05116,0.149862 0.02949,0.08813 0.05175,0.178714 0.07855,0.267684 0.03344,0.115088 0.06317,0.23086 0.0956,0.346232 0.03697,0.130923 0.0685,0.263629 0.106453,0.394291 0.04283,0.150183 0.08351,0.301095 0.142627,0.445968 0.07378,0.183568 0.158706,0.36211 0.241846,0.541569 0.08214,0.174834 0.164073,0.350219 0.227893,0.532784 0.05603,0.147893 0.111886,0.295919 0.153996,0.448551 0.04631,0.151799 0.08636,0.305346 0.130224,0.457854 0.03635,0.124559 0.07048,0.249644 0.112138,0.372587 0.03099,0.09528 0.06299,0.19003 0.09715,0.28422 0.0246,0.06939 0.05344,0.137439 0.07545,0.207739 0.02357,0.07854 0.0451,0.157952 0.05685,0.239262 0.01152,0.08783 0.0213,0.176031 0.0248,0.264583 0.0037,0.09843 0.0028,0.196706 -0.01034,0.294556 -0.01789,0.133317 -0.04285,0.264089 -0.142627,0.362769 -0.02223,0.01503 -0.04293,0.03294 -0.06666,0.04548 -0.06746,0.03562 -0.143271,0.03507 -0.217041,0.03927 -0.06793,0.0059 -0.135365,0.01629 -0.203605,0.01809 -0.08087,0.0045 -0.161942,0.01035 -0.242362,0.02015 -0.06822,0.008 -0.136279,0.0152 -0.204639,0.0217 -0.0617,0.0056 -0.123035,0.01442 -0.184485,0.02222 -0.08522,0.0065 -0.170238,0.01274 -0.255798,0.0098 -0.119488,-2.4e-5 -0.239147,-4.05e-4 -0.358635,-5.17e-4 -0.09372,-1.15e-4 -0.187399,2.78e-4 -0.281119,-5.16e-4 -0.08385,-9e-4 -0.167865,-0.0022 -0.251665,-0.0052 -0.09326,-0.0038 -0.186469,-0.01035 -0.279569,-0.01705 -0.118823,-0.0065 -0.237822,-0.0067 -0.356567,-0.01499 -0.09427,-0.0053 -0.188311,-0.0062 -0.282671,-0.0093 -0.08469,-0.0042 -0.169331,-0.01092 -0.253731,-0.01912 -0.06231,-0.0053 -0.124816,-0.0085 -0.187068,-0.01447 -0.06069,-2.9e-5 -0.121222,-3.65e-4 -0.181902,-5.17e-4 -0.06103,-2e-4 -0.122431,-5.5e-4 -0.183451,-0.0015 -0.05074,-0.0015 -0.101252,-0.0035 -0.151412,-0.01189 -0.09237,-0.019 -0.174817,-0.0598 -0.214457,-0.151928 -0.0093,-0.0217 -0.01219,-0.04585 -0.01809,-0.06873 1.64e-4,-0.0202 -0.0014,-0.04034 5.17e-4,-0.06046 0.0066,-0.06879 0.04219,-0.130413 0.07183,-0.191203 0.03685,-0.08241 0.07527,-0.164023 0.114205,-0.245463 0.03863,-0.08161 0.07392,-0.164883 0.114722,-0.245463 0.0508,-0.10278 0.09722,-0.207232 0.145727,-0.311092 0.06877,-0.148728 0.135619,-0.298591 0.206189,-0.446485 0.06486,-0.145805 0.129696,-0.291661 0.189136,-0.439766 0.05658,-0.13948 0.108353,-0.280493 0.157613,-0.422713 0.06644,-0.187387 0.131799,-0.375213 0.206189,-0.559656 0.06085,-0.157146 0.125902,-0.312962 0.185002,-0.470772 0.02633,-0.07252 0.05315,-0.144558 0.08217,-0.216008 0.03207,-0.07938 0.06709,-0.157642 0.10232,-0.235644 0.0538,-0.120347 0.105791,-0.241551 0.149861,-0.36587 0.03967,-0.112846 0.07921,-0.225598 0.117306,-0.338997 0.02183,-0.06354 0.04516,-0.126516 0.06511,-0.190686 0.01271,-0.04173 0.02877,-0.08239 0.03979,-0.12454 0.01413,-0.06728 0.03123,-0.133605 0.04703,-0.200505 0.01214,-0.05373 0.02716,-0.10673 0.03566,-0.16123 0.0094,-0.04361 0.01622,-0.08758 0.02532,-0.131258 0.0074,-0.05568 0.01832,-0.110875 0.02222,-0.166915 0.0042,-0.06167 0.0043,-0.123709 0.0036,-0.185519 l 5.17e-4,5.17e-4 c -5.57e-4,-0.0482 0.0067,-0.08814 0.01705,-0.124023 1.64e-4,-7.14e-4 3.39e-4,-0.0013 5.17e-4,-0.0021 0.0023,-0.0091 0.0056,-0.01888 0.01033,-0.02894 0.0042,-0.01029 0.0079,-0.02093 0.01292,-0.02997 0.0035,-0.0085 0.0069,-0.01711 0.0098,-0.02584 0.0063,-0.01898 0.01395,-0.03756 0.02325,-0.05529 0.0096,-0.01816 0.01863,-0.03698 0.03204,-0.05271 0.01134,-0.01374 0.02151,-0.02306 0.03359,-0.03514 0.0045,-0.0039 0.0094,-0.0076 0.01395,-0.01137 2.13e-4,-3.99e-4 8.77e-4,-7.04e-4 0.001,-0.001 0.008,-0.01439 0.02304,-0.02712 0.04341,-0.03772 0.01428,-0.01339 0.02955,-0.02533 0.04703,-0.03462 0.02007,-0.0096 0.04133,-0.01632 0.06304,-0.01654 0.0071,-7.3e-5 0.01394,6.86e-4 0.02119,0.0021 h 5.16e-4 c 0.01243,-0.0058 0.02537,-0.0097 0.03927,-0.0098 z m 0.0031,2.382801 c -0.0094,0.01358 -0.01877,0.02742 -0.02842,0.04082 -0.02235,0.02807 -0.09761,0.129274 -0.131775,0.146244 -0.05249,0.02606 -0.113952,0.06976 -0.168982,0.04961 -0.143892,-0.05268 -0.164934,-0.124379 -0.15813,-0.224276 -0.01313,0.03017 -0.02585,0.0604 -0.03927,0.09043 -0.03325,0.07369 -0.06594,0.147198 -0.09612,0.222208 -0.02769,0.06714 -0.05272,0.135333 -0.07751,0.203605 -0.05983,0.160444 -0.125775,0.318331 -0.187585,0.478007 -0.07306,0.181006 -0.137362,0.365405 -0.202572,0.549321 -0.05107,0.147634 -0.104667,0.294453 -0.163297,0.43925 -0.06105,0.152083 -0.127734,0.301908 -0.194304,0.451652 -0.07125,0.149637 -0.139242,0.300696 -0.208772,0.451135 -0.04981,0.106911 -0.09817,0.214617 -0.150379,0.320394 -0.03961,0.07865 -0.07406,0.159622 -0.111621,0.239262 -0.02848,0.05965 -0.05618,0.119744 -0.08372,0.179834 0.03899,3.61e-4 0.0778,0.001 0.116789,0.001 0.06037,1.51e-4 0.121014,-2.8e-5 0.181384,0 0.07305,0.0048 0.145632,0.01002 0.218592,0.01602 0.07996,0.0077 0.160055,0.01419 0.240295,0.01809 0.09525,0.0028 0.190621,0.0045 0.285771,0.0098 0.118386,0.0079 0.237076,0.0089 0.355534,0.01499 0.09153,0.0065 0.183228,0.01284 0.274918,0.01654 0.07995,0.0029 0.159789,0.0038 0.239779,0.0047 0.09253,7.78e-4 0.184972,0.001 0.277502,0.001 0.119356,1.12e-4 0.238762,-2.3e-5 0.358118,0 0.07584,0.003 0.151347,-0.0031 0.226859,-0.0088 0.05933,-0.0089 0.118544,-0.0162 0.178284,-0.0217 0.06489,-0.0061 0.13009,-0.01235 0.19482,-0.02015 0.08835,-0.01081 0.177284,-0.01774 0.266134,-0.02274 0.02842,-8.87e-4 0.05654,-0.0049 0.08475,-0.0078 -0.03333,-0.02606 -0.06582,-0.06209 -0.09457,-0.112654 -0.0095,-0.01677 -0.01892,-0.03387 -0.02842,-0.05064 -0.07302,-0.13003 -0.141719,-0.261878 -0.209289,-0.394808 -0.08117,-0.161918 -0.161284,-0.324871 -0.232544,-0.491443 -0.03394,-0.08322 -0.06703,-0.166224 -0.09508,-0.251664 -0.01097,-0.03341 -0.02534,-0.08342 -0.03514,-0.117823 -0.0051,-0.0177 -0.01,-0.03552 -0.01499,-0.05323 -0.02731,-0.09944 -0.05406,-0.19877 -0.07958,-0.29869 -0.02373,-0.09525 -0.04792,-0.190584 -0.0739,-0.285254 -0.03445,-0.125546 -0.06852,-0.250998 -0.102319,-0.376721 -0.0388,-0.147259 -0.0764,-0.295103 -0.115239,-0.442351 -0.03912,-0.149944 -0.0787,-0.299817 -0.120406,-0.449068 -0.02324,-0.08539 -0.04686,-0.17084 -0.06976,-0.256315 -0.01072,-7.93e-4 -0.0213,-0.0023 -0.03204,-0.0031 -0.0045,0.02062 -0.01004,0.04099 -0.01705,0.06098 -0.06711,0.19124 -0.118463,0.01274 -0.176733,-0.115755 z m -0.133325,0.04289 c -0.02188,0.06277 0.0073,0.01041 0.0036,0.0052 -0.0012,-0.0017 -0.0025,-0.0035 -0.0036,-0.0052 z m 0.781864,0.201538 c 0.03957,0.142426 0.07741,0.285369 0.114722,0.428398 0.03877,0.146965 0.07599,0.294343 0.114722,0.441316 0.03349,0.124545 0.06767,0.248732 0.101802,0.373104 0.02673,0.09739 0.05155,0.195534 0.07597,0.293522 0.02486,0.09712 0.05093,0.193752 0.07751,0.290422 0.0047,0.01692 0.0092,0.03373 0.01395,0.05064 0.0091,0.03184 0.02276,0.07884 0.03307,0.110071 0.02477,0.07503 0.05431,0.148095 0.08423,0.221175 0.06796,0.157972 0.143579,0.312439 0.220659,0.466121 0.03585,0.07037 0.07206,0.140518 0.109037,0.210323 -3.55e-4,-0.01379 -9.68e-4,-0.02758 -0.0016,-0.04134 -0.0026,-0.05554 -0.0056,-0.110791 -0.01344,-0.165881 -0.0116,-0.07453 -0.02666,-0.148712 -0.03824,-0.223242 -0.0117,-0.05759 -0.02908,-0.113226 -0.04909,-0.168466 -0.02604,-0.07033 -0.04921,-0.14176 -0.07441,-0.21239 -0.02352,-0.06256 -0.04308,-0.126569 -0.06356,-0.190169 -0.02434,-0.07483 -0.05138,-0.148396 -0.07235,-0.224276 -0.02718,-0.09139 -0.05713,-0.181911 -0.08578,-0.272851 -0.02168,-0.0717 -0.04356,-0.143614 -0.0708,-0.213424 -0.02737,-0.05786 -0.05792,-0.114186 -0.0863,-0.171566 -0.02832,-0.05836 -0.05439,-0.117836 -0.08268,-0.176216 -0.01791,-0.04742 -0.04268,-0.09224 -0.05994,-0.140043 -0.02053,-0.05684 -0.04226,-0.113276 -0.06305,-0.170016 -0.02661,-0.07427 -0.05176,-0.149052 -0.07855,-0.223242 -0.02486,-0.07045 -0.05029,-0.140821 -0.07338,-0.211873 -0.0095,-0.02726 -0.02116,-0.05362 -0.03256,-0.0801 z m -2.717663,3.533118 c -0.0019,0.0042 -0.0036,0.0086 -0.0052,0.01292 -8.75e-4,0.0023 -0.0035,0.0086 -0.0015,0.0072 0.006,-0.0041 0.0068,-0.01204 0.0067,-0.02015 z"
       clip-path="url(#clipPath53)" />
    <path
       d="m 8.6570272,56.757125 c 1.240367,0.91652 2.2436668,2.13783 2.5188328,3.683 0.0417,0.57362 0.07048,1.13242 0.07937,1.70603 0.003,0.14246 0.006,0.28575 0.009,0.4318 -0.016,1.65524 -0.681567,2.87867 -1.7801168,4.064 -1.143,0.98637 -2.6035,1.13454 -4.064,1.09009 -1.477434,-0.22225 -2.8575,-1.02024 -3.767667,-2.20134 -0.89534998,-1.66793 -0.91651698,-3.66183 -0.48895,-5.48216 0.493183,-1.34832 1.18745,-2.51884 2.455333,-3.25967 1.678517,-0.75565 3.407834,-0.95885 5.058834,-0.0157 z m -5.101167,1.35255 c -1.170516,1.37583 -1.367366,2.83633 -1.335616,4.59317 0.127846,1.36101 0.516466,2.56116 1.5748,3.47133 1.16205,0.78317 2.180166,0.77258 3.577166,0.6223 1.007534,-0.3556 1.5367,-0.77258 2.05105,-1.71238 0.370417,-0.93769 0.370417,-1.8415 0.3556,-2.83634 0.0025,-0.17272 0.0049,-0.34501 0.0075,-0.52281 -0.0084,-1.74414 -0.541867,-3.00567 -1.780117,-4.23334 -1.699683,-0.77893 -2.942166,-0.33443 -4.445,0.635 z"
       fill="#4b4b4b"
       id="path8"
       style="stroke-width:0.211667;fill:#000000;fill-opacity:1" />
    <path
       d="m 91.418692,55.910465 c 0.1488,-0.003 0.29845,-0.005 0.45085,-0.008 0.7747,-0.002 1.08162,0.029 1.74413,0.47202 -0.0889,1.1176 -0.50588,1.76742 -1.20438,2.6035 -0.19367,0.2413 -0.38735,0.4826 -0.57997,0.72602 -0.0938,0.11726 -0.18753,0.23495 -0.28363,0.3556 -0.45297,0.58208 -0.84878,1.19591 -1.2446,1.8161 -0.34925,0.51858 -0.74295,0.99271 -1.13242,1.48166 -0.37676,0.508 -0.74506,1.02024 -1.11125,1.53459 -0.0971,0.13483 -0.19431,0.26881 -0.29421,0.40851 -0.48895,0.56515 -0.48895,0.56515 -0.7112,1.2319 2.02565,0.0699 4.04283,0.1397 6.13833,0.21167 0.0699,0.20955 0.1397,0.4191 0.21167,0.635 -0.86784,0.2413 -1.7018,0.23918 -2.6035,0.23283 -0.16786,-2.9e-4 -0.33655,-5.9e-4 -0.508,-9.1e-4 -0.53552,-0.001 -1.06892,-0.004 -1.60444,-0.007 -0.36406,-0.001 -0.72601,-0.002 -1.09008,-0.003 -0.889,-0.002 -1.778,-0.006 -2.667,-0.0103 0.10689,-0.84878 0.24765,-1.44356 0.7366,-2.13783 0.10943,-0.15896 0.21802,-0.3175 0.33232,-0.4826 0.11874,-0.167 0.23706,-0.33443 0.35983,-0.50588 0.12171,-0.17463 0.24342,-0.34925 0.3683,-0.52917 0.96943,-1.38007 1.98332,-2.7305 3.02683,-4.064 0.56304,-0.71967 1.08162,-1.42875 1.53035,-2.2225 -0.57573,-0.28787 -1.05621,-0.254 -1.69968,-0.27093 -0.254,-0.008 -0.51012,-0.0158 -0.77047,-0.0239 -0.2667,-0.007 -0.5334,-0.0147 -0.80856,-0.0222 -0.52705,-0.0145 -1.0541,-0.0298 -1.58115,-0.0464 -0.23495,-0.006 -0.4699,-0.0128 -0.7112,-0.0194 -0.56515,-0.04 -0.56515,-0.04 -0.98849,-0.25189 0.0699,-0.2794 0.1397,-0.5588 0.21167,-0.84666 2.159,-0.11959 4.318,-0.23284 6.477,-0.25189 z"
       fill="#4b4b4b"
       id="path9"
       style="stroke-width:0.211667;fill:#000000;fill-opacity:1" />
    <path
       d="m 38.713692,56.757125 c 0.54187,0.51647 0.54187,0.51647 0.84667,1.05833 v 0.84667 c -0.50377,-0.0529 -0.50377,-0.0529 -1.05834,-0.21167 -0.0567,-0.13525 -0.11345,-0.27093 -0.17187,-0.41063 -0.23918,-0.52282 -0.23918,-0.52282 -1.00542,-0.71543 -1.30175,-0.26035 -2.51883,-0.22014 -3.64066,0.51646 -1.23825,1.00754 -1.67852,2.26484 -1.91982,3.81 -0.0544,1.35255 0.35983,2.96334 1.2446,4.0005 1.37795,1.18534 3.15383,0.9652 4.86833,0.84667 0.1397,-0.0699 0.2794,-0.1397 0.42334,-0.21167 v -3.81 h -2.11667 v -0.635 c 0.63288,-0.31538 1.21497,-0.23918 1.9177,-0.23706 0.26882,-5.5e-4 0.53763,-10e-4 0.81492,-0.002 0.65405,0.0281 0.65405,0.0281 0.86571,0.23918 0.0591,0.69003 0.0491,1.3843 0.0529,2.07645 0.004,0.19389 0.009,0.38735 0.0132,0.58843 0.002,0.28152 0.002,0.28152 0.003,0.56727 0.003,0.25823 0.003,0.25823 0.006,0.5207 -0.0936,0.5969 -0.31115,0.88265 -0.7112,1.32715 -1.2192,0.82762 -3.02683,0.75353 -4.445,0.635 -1.53882,-0.29633 -2.75167,-1.00118 -3.66183,-2.286 -0.78105,-1.30598 -0.98849,-2.56117 -0.78529,-4.064 0.55245,-1.83727 1.26789,-3.45017 2.96334,-4.445 1.8288,-0.88265 3.683,-0.90593 5.50333,0 z"
       fill="#4b4b4b"
       id="path10"
       style="stroke-width:0.211667;fill:#000000;fill-opacity:1" />
    <path
       d="m 100.73203,56.122125 c 0.17886,4.3e-4 0.35772,8.6e-4 0.54187,0.001 0.18245,-2.1e-4 0.36406,-4.1e-4 0.55245,-6.2e-4 0.38735,-1.4e-4 0.77258,2.5e-4 1.15993,0.001 0.59267,10e-4 1.18745,2e-5 1.78012,-0.001 0.37465,1.4e-4 0.7493,4.1e-4 1.12395,8.3e-4 0.17886,-4.3e-4 0.35771,-8.6e-4 0.54186,-10e-4 1.25307,0.005 1.25307,0.005 1.48802,0.2413 -0.0578,1.20015 -0.42122,1.90712 -1.17687,2.794 -0.19452,0.2413 -0.38946,0.4826 -0.58208,0.7239 -0.0965,0.11875 -0.19325,0.23707 -0.2921,0.35983 -0.39158,0.49107 -0.75777,0.99907 -1.12183,1.50919 -0.72814,1.01388 -1.4859,2.00236 -2.26484,2.9845 -0.4445,0.56938 -0.83608,1.1176 -1.12606,1.78011 0.2286,0.27517 0.2286,0.27517 0.77046,0.2286 0.24342,-0.004 0.48684,-0.008 0.7366,-0.0115 0.26459,-0.003 0.52705,-0.005 0.8001,-0.008 0.56092,-0.007 1.11972,-0.0157 1.68064,-0.0248 0.26458,-0.002 0.52916,-0.005 0.80221,-0.007 0.36619,-0.005 0.36619,-0.005 0.73872,-0.0108 0.61383,0.0447 0.61383,0.0447 1.24883,0.46778 -0.55668,0.55669 -0.96096,0.47625 -1.71873,0.4826 -0.17695,-8.4e-4 -0.35348,-0.002 -0.53552,-0.003 -0.18161,4e-4 -0.36406,8e-4 -0.55033,10e-4 -0.38523,2.9e-4 -0.76835,-4.9e-4 -1.15358,-0.002 -0.59055,-0.002 -1.17899,-2e-5 -1.76742,0.003 -0.37253,-2.8e-4 -0.74507,-8.3e-4 -1.11972,-0.002 -0.17695,8.5e-4 -0.35348,0.002 -0.53551,0.003 -1.246718,-0.0102 -1.246718,-0.0102 -1.718738,-0.4826 0.83609,-1.41181 1.794938,-2.70933 2.772838,-4.02166 0.59266,-0.80222 1.17686,-1.6129 1.75471,-2.43417 0.083,-0.11663 0.16595,-0.23283 0.25189,-0.35348 0.24341,-0.34079 0.48471,-0.68157 0.72813,-1.02235 0.0952,-0.12954 0.1905,-0.25824 0.28787,-0.3937 0.41698,-0.5715 0.75565,-1.04987 0.98213,-1.72297 -2.159,-0.0699 -4.33917,-0.1397 -6.561668,-0.21167 0,-1.12183 0.49954,-0.87206 1.488018,-0.8763 z"
       fill="#4b4b4b"
       id="path11"
       style="stroke-width:0.211667;fill:#000000;fill-opacity:1" />
    <path
       d="m 115.12536,56.122125 c 0.4064,0.007 0.4064,0.007 0.82338,0.0134 0.21802,0.002 0.21802,0.002 0.43815,0.004 0.46144,0.005 0.92287,0.0154 1.3843,0.026 0.31327,0.004 0.62654,0.008 0.9398,0.0116 0.76624,0.009 1.53459,0.0239 2.30717,0.0413 0.10478,0.4191 0.10478,0.4191 0.21167,0.84667 -2.83634,0.10477 -2.83634,0.10477 -5.715,0.21166 v 4.23334 c 1.74625,0.0699 3.4925,0.1397 5.29166,0.21166 0.10478,0.31539 0.10478,0.31539 0.21167,0.635 -0.15917,0.005 -0.3175,0.0106 -0.4826,0.0161 -0.71755,0.0245 -1.43298,0.0504 -2.159,0.0766 -0.24977,0.008 -0.50165,0.0166 -0.75988,0.0252 -0.23707,0.009 -0.47625,0.0177 -0.72179,0.0269 -0.22013,0.008 -0.44026,0.0155 -0.66886,0.0235 -0.49954,-0.0126 -0.49954,-0.0126 -0.72179,0.25611 -0.0183,0.28364 -0.0226,0.56939 -0.0207,0.85514 5.3e-4,0.15409 10e-4,0.30903 0.002,0.46778 0.002,0.19706 0.004,0.3937 0.006,0.5969 0.004,0.62442 0.009,1.24883 0.0132,1.8923 2.94216,0.10478 2.94216,0.10478 5.92666,0.21167 0.0699,0.20955 0.1397,0.4191 0.21167,0.635 -0.79798,0.0423 -1.59597,0.0811 -2.39183,0.11895 -0.33444,0.0178 -0.33444,0.0178 -0.67522,0.036 -1.45627,0.0671 -2.89983,0.0777 -4.33917,-0.15494 -0.33655,-0.33655 -0.25188,-0.68792 -0.26458,-1.1557 -0.006,-0.20066 -0.0125,-0.40217 -0.019,-0.60749 -0.006,-0.21801 -0.0111,-0.43603 -0.0168,-0.66251 -0.006,-0.22225 -0.0118,-0.44662 -0.0179,-0.67734 -0.012,-0.47413 -0.0233,-0.94615 -0.0341,-1.42028 -0.0173,-0.7239 -0.0392,-1.44992 -0.0614,-2.18017 -0.011,-0.45931 -0.0218,-0.91863 -0.0322,-1.37795 -0.007,-0.21801 -0.0145,-0.43391 -0.022,-0.65828 -0.004,-0.20256 -0.007,-0.40428 -0.0109,-0.61383 -0.005,-0.17801 -0.009,-0.3556 -0.0137,-0.53975 0.13144,-0.91652 0.4699,-1.29964 1.38006,-1.42875 z"
       fill="#4b4b4b"
       id="path12"
       style="stroke-width:0.211667;fill:#000000;fill-opacity:1" />
    <path
       d="m 77.237032,56.122125 c 0.3556,0.0605 0.70697,0.13081 1.05833,0.21167 0.24554,2.39183 0.23707,4.7625 0.22437,7.15433 -0.001,0.39582 -0.002,0.79163 -0.003,1.18533 -0.002,0.95885 -0.006,1.9177 -0.0103,2.87867 -0.35348,0.009 -0.70485,0.009 -1.05833,0 -0.73237,-0.73237 -0.44874,-2.921 -0.45297,-3.91583 4.3e-4,-0.18288 8.6e-4,-0.36619 0.001,-0.55457 -2e-4,-0.19389 -4.1e-4,-0.38735 -6.2e-4,-0.58632 -1.4e-4,-0.40428 2.4e-4,-0.81068 10e-4,-1.21496 0.001,-0.6223 1e-5,-1.2446 -10e-4,-1.86902 1.4e-4,-0.39582 4.1e-4,-0.78952 8.3e-4,-1.18533 -4.3e-4,-0.18669 -8.6e-4,-0.37254 -0.001,-0.56515 0.005,-1.30175 0.005,-1.30175 0.2413,-1.5367 z"
       fill="#4b4b4b"
       id="path14"
       style="stroke-width:0.211667;fill:#000000;fill-opacity:1" />
    <circle
       id="path55"
       style="fill:#b9b9b9;stroke:#000000;stroke-width:0.264583"
       cx="-33.304192"
       cy="49.841442"
       r="0" />
  </g>
</svg>
